<?xml version="1.0" encoding="UTF-8"?>
<svg id="Layer_1" xmlns="http://www.w3.org/2000/svg" version="1.1" viewBox="0 0 472.62 472.62">
  <!-- Generator: Adobe Illustrator 30.1.0, SVG Export Plug-In . SVG Version: 2.1.1 Build 136)  -->
  <polygon points="260.65 60.78 263.95 63.52 265.36 63.52 266.1 62.15 265.04 59.48 260.1 48.33 256.11 38.74 254.58 31.7 247.76 21.39 242.42 11.48 237.72 6.26 233.17 4.43 230.98 2.87 229.1 0 227.53 0 225.02 4.43 220.94 5.48 217.96 7.57 214.51 10.7 209.65 18.52 206.52 25.3 204.79 33.39 203.85 42.52 203.85 54 205.1 65.48 208.08 78.52 212.79 98.61 216.86 115.04 220.31 131.48 221.57 144.52 221.88 158.35 220.94 166.17 219.37 169.04 217.49 169.04 214.04 158.61 208.24 149.22 200.56 138.78 191.15 127.3 182.05 118.7 176.41 114.78 169.98 113.74 164.33 112.17 155.87 107.74 148.65 105.91 143.48 104.61 136.27 104.09 129.68 103.57 124.82 104.61 118.55 104.09 116.35 100.17 114.16 88.17 108.98 70.96 100.51 51.13 86.71 24 80.91 15.13 76.68 10.96 72.92 11.22 70.56 13.7 67.62 19.76 65.98 24.07 62.8 25.04 58.57 25.43 55.16 27.78 52.8 29.74 50.22 35.41 48.34 40.7 46.69 42.26 43.51 44.02 40.57 50.67 38.1 59.48 36.1 66.52 33.87 69.26 29.52 72 26.81 74.74 24.58 80.61 23.05 87.26 21.17 94.3 19.52 100.76 18.82 110.93 17.41 114.07 13.41 120.13 10.94 125.22 9.41 132.65 8.7 137.15 8.7 142.24 9.41 146.93 9.41 152.02 8.11 156.91 4.35 163.17 2.35 167.87 1.06 174.52 0 179.02 0 186.46 .71 192.91 2.7 200.15 7.29 210.72 7.76 214.04 6.82 217.37 5.41 221.28 4.7 227.15 4.12 235.37 5.29 241.63 8.59 249.85 10.7 253.17 11.05 258.65 12.82 265.7 13.52 269.22 12.23 275.48 11.64 280.17 10.82 286.24 11.76 292.3 14.23 299.93 17.64 306 17.05 312.65 16.94 319.3 18.35 325.17 20.23 329.67 24.7 336.52 25.99 342.59 27.28 348.26 29.87 352.76 33.16 356.87 36.1 360 40.1 368.61 42.34 371.35 44.81 373.3 47.87 373.3 49.86 373.3 52.33 377.41 55.63 381.52 59.16 384.46 65.62 384.46 68.68 383.09 70.68 381.91 73.62 382.5 74.91 384.46 73.97 387.2 73.62 390.33 75.15 394.24 73.97 398.54 71.5 402.65 70.09 406.17 68.8 410.67 69.15 414.78 70.68 416.74 75.62 416.74 76.91 419.28 75.74 421.83 72.33 425.74 70.33 428.48 69.62 432 71.03 435.13 73.03 436.7 76.56 436.7 79.38 434.54 82.44 436.7 84.21 438.46 86.09 438.46 87.97 441.98 90.09 443.35 93.14 443.35 97.49 438.26 101.38 433.96 103.26 433.76 103.73 435.52 102.32 438.65 101.26 441.39 101.96 443.35 103.14 445.3 105.73 445.3 111.02 440.41 117.61 434.54 120.08 433.57 123.96 433.37 127.13 432.59 130.07 433.57 130.07 437.67 129.37 443.15 131.95 447.26 132.19 456.26 132.35 458.8 134.46 461.67 137.52 464.15 140.89 465.72 144.34 466.89 147.24 466.89 151.79 466.89 153.67 467.67 155.55 469.11 157.2 471.33 158.69 472.62 163.79 472.62 165.2 470.8 165.67 466.5 166.69 464.41 168.88 463.11 170.14 461.41 170.14 457.37 168.41 454.89 165.04 452.54 163.86 452.44 160.57 452.15 156.89 452.28 153.83 452.54 152.18 453.07 148.81 453.2 146.54 452.02 144.58 450.98 140.97 448.11 138.77 444.07 136.74 437.41 135.87 432.07 135.8 424.63 137.68 421.37 142.22 413.93 146.85 404.93 152.1 392.93 153.67 389.67 154.93 390.46 157.51 397.5 160.41 405.2 162.92 413.15 164.41 418.24 165.75 425.15 166.37 433.63 167.39 438.59 168.1 444.59 166.84 449.41 164.41 451.63 170.61 456.33 171.7 454.76 172.72 453.85 179.23 454.11 182.21 454.11 182.92 453.2 189.5 453.2 191.7 455.41 193.19 457.24 194.6 459.07 196.56 461.15 197.97 462.59 199.69 462.46 200.79 460.76 201.11 457.37 201.81 455.67 202.99 453.85 207.14 453.98 207.22 449.67 204.63 446.15 202.05 444.33 199.62 443.02 196.64 442.37 191.07 441.72 187.86 441.07 183.86 440.28 179.78 438.33 176.17 434.8 173.35 428.67 172.17 424.37 171.08 417.46 170.29 410.93 170.06 389.28 170.92 384.2 172.57 378.98 174.29 377.15 185.82 377.28 191.23 376.24 200.24 374.35 209.3 371.8 217.3 368.87 224.35 363.39 231.76 353.61 237.29 347.74 244.46 341.87 249.64 332.67 253.75 318.39 257.4 302.35 261.4 284.35 263.4 274.76 263.87 221.54 263.16 209.8 261.99 203.15 260.81 197.28 260.34 177.33 259.52 171.65 257.28 163.04 255.5 159.33 254.97 157.37 254.32 152.58 253.56 150.13 252.62 147.98 251.73 145.63 251.68 141.23 253.09 137.12 254.38 133.7 254.97 131.15 254.91 121.17 255.5 118.24 256.38 115.3 256.62 110.12 255.91 105.52 254.03 96.42 252.68 88.4 251.91 83.22 251.85 69.03 252.32 65.9 253.2 63.26 254.2 60.91 255.26 59.74 256.26 58.96 258.79 58.96 259.91 59.93 260.65 60.78"/>
  <g>
    <path d="M312.96,112.79c1.12,0,2.27.2,3.43.59.95.31,1.64.75,2.05,1.3s.62,1.31.62,2.27c0,.61-.08,1.09-.23,1.43-.15.34-.48.76-.98,1.25-.58.59-.92,1.28-1,2.08-.09.8-.16,3.89-.23,9.27-.03,5.21-.06,8.33-.08,9.38-.03,1.04-.09,2.05-.19,3.04-.29,2.87-.88,5.12-1.76,6.75-.72,1.34-1.65,2.39-2.79,3.15-1.13.77-2.33,1.15-3.58,1.15-1.11,0-2.23-.29-3.35-.85s-2.09-1.36-2.91-2.36c-.68-.83-1.22-1.94-1.63-3.35-.4-1.4-.6-2.9-.6-4.5,0-1.97.32-3.59.95-4.88.63-1.29,1.42-1.93,2.38-1.93s1.73.54,2.38,1.62c.65,1.1.98,2.46.98,4.07,0,.41-.06,1.1-.18,2.06-.02.2-.03.41-.03.65,0,.63.12,1.14.35,1.53.23.39.54.59.92.59.67,0,1.21-.59,1.63-1.77.41-1.18.62-2.73.62-4.66l-.02-2.68-.03-7.22c-.09-4.38-.16-6.96-.2-7.74-.05-.78-.16-1.41-.34-1.9-.15-.39-.28-.65-.4-.77-.12-.12-.43-.3-.94-.56-.24-.1-.45-.37-.62-.83-.17-.45-.26-.93-.26-1.44,0-1.06.21-1.91.64-2.55s1.12-1.15,2.08-1.55c1.07-.43,2.18-.65,3.33-.65Z"/>
    <path d="M337.97,133.28l2.84,11.94c.27,1.1.5,1.82.68,2.17s.46.57.83.69c.72.22,1.08.93,1.08,2.15,0,1.44-.44,2.47-1.32,3.1s-2.33.94-4.33.94c-2.27,0-3.95-.19-5.04-.56-.5-.18-.9-.54-1.2-1.08s-.44-1.19-.44-1.96c0-.59.08-1.05.23-1.37.16-.32.44-.62.87-.9.47-.31.71-.85.71-1.59,0-1.32-.41-2.09-1.22-2.33-.87-.24-2.1-.35-3.69-.35-1.33,0-2.13.16-2.39.47-.16.2-.3.55-.42,1.06-.12.51-.18,1-.18,1.47,0,.43.04.71.13.84.08.13.36.34.83.63.61.35.92,1.06.92,2.12,0,2.34-1.43,3.51-4.29,3.51-1.63,0-2.82-.22-3.58-.65-.7-.41-1.05-1.32-1.05-2.71,0-.61.08-1.08.23-1.42.16-.33.43-.64.83-.91.65-.45,1.15-1.09,1.48-1.9.34-.82.81-2.56,1.44-5.23l2.12-9.11c.78-3.34,1.31-5.84,1.57-7.5.27-1.66.4-3.29.41-4.88,0-1.69.06-2.86.16-3.52.09-.66.31-1.3.64-1.93.69-1.38,1.58-2.06,2.65-2.06,1.01,0,1.98.78,2.91,2.33,1.28,2.12,3.15,8.31,5.6,18.55ZM327.49,137h2.95c.54,0,.81-.24.81-.71,0-.65-.38-2.24-1.13-4.78-.34-1.16-.6-1.94-.78-2.33-.18-.39-.37-.59-.57-.59-.36,0-.66.66-.9,1.98-.04.18-.19.88-.44,2.09-.42,2-.63,3.2-.63,3.6,0,.49.23.74.69.74Z"/>
    <path d="M354.21,112.58c1.46,0,2.88.63,4.25,1.89.64.59,1.09.88,1.34.88.18,0,.47-.09.87-.27.13-.06.28-.09.44-.09.52,0,.98.47,1.37,1.42.96,2.28,1.44,5.11,1.44,8.49,0,2.38-.42,4.12-1.25,5.22-.45.59-.96.88-1.52.88-.51,0-.93-.22-1.25-.65-.32-.43-.63-1.2-.93-2.3-.43-1.55-.78-2.67-1.05-3.35-.27-.68-.6-1.29-.99-1.84-.97-1.34-1.99-2-3.06-2s-1.85.73-2.46,2.2c-.61,1.46-.91,3.42-.91,5.88,0,3.38.44,6.48,1.31,9.29,1.18,3.75,2.88,5.63,5.09,5.63.81,0,1.62-.27,2.42-.8.8-.53,1.42-1.22,1.86-2.06.38-.71.69-1.06.93-1.06.35,0,.65.32.9.96.25.64.38,1.41.38,2.31,0,1.14-.18,2.42-.53,3.83-.35,1.42-.77,2.53-1.26,3.33-.21.33-.65.63-1.31.88-.38.14-.89.5-1.52,1.09-1.49,1.4-3.03,2.09-4.64,2.09s-3.35-.74-5.01-2.21c-1.94-1.71-3.47-4.33-4.59-7.87-1.1-3.44-1.66-7.04-1.66-10.79,0-4.36.69-8.34,2.08-11.94,1.2-3.12,2.77-5.51,4.71-7.16,1.47-1.26,3-1.89,4.56-1.89Z"/>
    <path d="M382.7,121.46l-1.61,3.04c-.59,1.1-.89,2.1-.89,3.01,0,.49.07.98.2,1.47.14.49.39,1.16.76,2.01l5.63,12.77c.5,1.14.85,1.86,1.04,2.17.19.31.48.62.86.96.54.45.93.95,1.15,1.5.23.55.34,1.27.34,2.15,0,2.08-.76,3.13-2.27,3.13h-5.71c-.39,0-.7-.17-.93-.5-.23-.33-.58-1.16-1.08-2.48-.78-2.1-1.82-4.52-3.1-7.25-.56-1.18-.96-1.95-1.18-2.31-.23-.36-.43-.55-.62-.55-.58,0-.87,1.07-.87,3.21,0,1.75.19,2.96.57,3.63.07.1.23.31.48.65.54.69.81,1.54.81,2.57,0,1.3-.44,2.23-1.32,2.79-.88.56-2.37.84-4.46.84-1.86,0-3.21-.22-4.06-.65-.36-.2-.65-.56-.88-1.08-.23-.52-.34-1.11-.34-1.75,0-1.04.3-1.94.9-2.68.27-.35.46-.74.58-1.17.12-.42.22-1.13.32-2.14.2-2.22.3-5.64.3-10.26,0-5.5-.1-9.41-.32-11.71-.08-.94-.19-1.62-.33-2.03-.14-.41-.39-.82-.74-1.21-.56-.63-.84-1.5-.84-2.62,0-.94.18-1.7.53-2.27.35-.57.91-1,1.69-1.3,1.02-.39,2.31-.59,3.85-.59s2.75.29,3.51.88c.68.55,1.02,1.53,1.02,2.95,0,.59-.05,1.05-.16,1.37s-.38.83-.82,1.52c-.16.28-.31.93-.44,1.98-.14,1.04-.2,2.06-.2,3.07,0,1.65.19,2.48.57,2.48.23,0,.45-.2.67-.59s.65-1.38,1.3-2.95c.75-1.83,1.13-3.08,1.13-3.74,0-.35-.1-.88-.29-1.59-.13-.49-.2-.94-.2-1.36,0-1.45.4-2.48,1.2-3.08.8-.6,2.17-.9,4.11-.9,1.55,0,2.69.2,3.43.59.91.49,1.37,1.53,1.37,3.13,0,.63-.09,1.21-.29,1.75-.19.54-.43.89-.71,1.05-.21.14-.7.22-1.46.24-.53.02-.93.14-1.2.37-.27.23-.61.73-1.03,1.52Z"/>
    <path d="M399.87,112.58c1.03,0,2.39.5,4.06,1.5.2.12.36.18.48.18.1,0,.4-.18.9-.53.16-.12.33-.18.51-.18.67,0,1.38,1.04,2.13,3.13.75,2.08,1.12,4.07,1.12,5.96,0,1.1-.17,2.03-.5,2.79-.34.76-.75,1.14-1.23,1.14-.4,0-.73-.16-.98-.47-.25-.31-.8-1.25-1.66-2.8-1.2-2.2-2.39-3.3-3.55-3.3-.56,0-1.01.27-1.35.8-.34.53-.5,1.23-.5,2.09,0,1.71.77,3,2.3,3.86,2.08,1.2,3.41,2.07,3.99,2.62,2.56,2.44,3.84,6.02,3.84,10.76,0,4.19-.87,7.61-2.62,10.26-1.79,2.71-4.12,4.07-7,4.07-1.29,0-2.64-.3-4.06-.9-1.43-.6-2.45-1.3-3.09-2.11-.48-.63-.92-2-1.3-4.11-.39-2.11-.58-4.17-.58-6.18,0-.96.1-1.69.3-2.18.25-.63.57-.94.95-.94s.75.38,1.1,1.15c.21.43.71,1.82,1.49,4.16.37,1.1.96,2.02,1.77,2.74.81.73,1.64,1.09,2.51,1.09.74,0,1.34-.27,1.81-.81.46-.54.69-1.23.69-2.08,0-.79-.18-1.46-.54-2.03-.36-.57-.95-1.1-1.76-1.59-1.44-.88-2.53-1.7-3.28-2.43-.75-.74-1.46-1.67-2.11-2.79-1.58-2.75-2.38-5.88-2.38-9.38,0-1.73.21-3.42.62-5.06.41-1.64.99-3.06,1.75-4.26,1.69-2.77,3.74-4.16,6.17-4.16Z"/>
    <path d="M422.22,112.58c2.58,0,4.83,1.44,6.76,4.33,1.3,1.99,2.36,4.56,3.18,7.72.79,3.15,1.19,6.29,1.19,9.44,0,4.64-.78,8.79-2.35,12.44-1.32,3.11-3.06,5.34-5.19,6.69-1.31.83-2.63,1.24-3.96,1.24-1.74,0-3.4-.71-4.98-2.12-1.92-1.71-3.42-4.29-4.5-7.75-1.05-3.34-1.58-7.03-1.58-11.06,0-4.68.68-8.81,2.03-12.38,1.2-3.18,2.82-5.52,4.86-7.02,1.36-1.02,2.88-1.53,4.55-1.53ZM420.79,121.05c-.84,0-1.51.74-2,2.21-.38,1.1-.57,2.41-.57,3.92,0,2.22.23,4.79.69,7.71.46,2.92,1.04,5.51,1.75,7.77.31.96.69,1.73,1.15,2.3.46.57.92.85,1.39.85.76,0,1.38-.56,1.84-1.68.47-1.12.7-2.59.7-4.42,0-2.38-.2-4.94-.59-7.7-.39-2.75-.9-5.1-1.52-7.05-.38-1.2-.82-2.14-1.33-2.83s-1.01-1.05-1.52-1.09Z"/>
    <path d="M442.93,114.83l7.5,12.85c.7,1.2,1.21,1.8,1.52,1.8.52,0,.78-1.09.78-3.27,0-2.48-.08-4.17-.23-5.07s-.47-1.58-.95-2.03c-.39-.37-.67-.77-.83-1.19-.16-.42-.24-.97-.24-1.64,0-1.65.58-2.71,1.73-3.18.47-.2,1.29-.29,2.47-.29,1.51,0,2.56.18,3.15.53.92.55,1.38,1.59,1.38,3.13,0,1.28-.38,2.24-1.13,2.89-.3.26-.51.48-.62.68-.11.2-.21.49-.29.88-.27,1.3-.41,3.75-.42,7.37v9.61c0,1.47,0,3.49.02,6.04,0,3.46-.1,5.96-.32,7.49-.27,1.91-.76,2.86-1.48,2.86-.31,0-.58-.13-.8-.38-.23-.26-.6-.84-1.12-1.77l-8.93-15.66c-.62-1.1-1.14-1.65-1.55-1.65-.61,0-.92,1.66-.92,4.98,0,2.73.08,4.6.23,5.6.16,1,.47,1.74.96,2.21.67.65,1.01,1.49,1.01,2.54,0,2.73-1.5,4.1-4.5,4.1-1.35,0-2.41-.35-3.15-1.05-.75-.7-1.12-1.69-1.12-2.96,0-.67.07-1.17.21-1.5.14-.33.46-.79.95-1.36.47-.55.76-1.52.86-2.92.17-2.54.26-6.18.26-10.94,0-5.07-.15-8.77-.45-11.09-.11-.84-.25-1.47-.42-1.89s-.45-.81-.84-1.18c-.45-.43-.77-.85-.94-1.27-.18-.41-.26-.91-.26-1.5,0-1.89.83-3.08,2.48-3.57.56-.16,1.54-.24,2.95-.24.8,0,1.39.12,1.75.37.37.25.8.8,1.3,1.67Z"/>
    <path d="M306.97,185.87h7.93c.85-.06,1.63-.28,2.33-.68.3-.16.57-.24.8-.24.81,0,1.6,1.18,2.37,3.54.77,2.36,1.15,4.79,1.15,7.28,0,1.71-.27,2.96-.8,3.74-.4.59-.88.88-1.45.88-.53,0-.99-.29-1.38-.87-.39-.58-.78-1.54-1.16-2.88-.33-1.22-.59-2.01-.78-2.39-.19-.37-.42-.56-.69-.56-.37,0-.64.31-.8.91-.16.61-.24,1.61-.24,3.01v16.51c0,1.69.09,2.92.27,3.69s.52,1.36,1.02,1.77c.54.45.91.88,1.11,1.28.2.4.29.96.29,1.67,0,1.42-.49,2.47-1.47,3.15-.98.69-2.48,1.03-4.51,1.03-2.49,0-4.34-.4-5.54-1.21-1.01-.67-1.52-1.75-1.52-3.24,0-.81.18-1.43.54-1.89.09-.1.45-.33,1.07-.71.38-.22.64-.63.79-1.24.15-.61.26-1.78.35-3.51.08-1.53.16-4.01.23-7.44.07-3.43.11-6.4.11-8.92,0-1.77-.07-3.03-.21-3.77-.14-.75-.37-1.12-.69-1.12-.39,0-.77.55-1.14,1.65-.67,2-1.22,3.33-1.66,3.98-.51.77-1.01,1.15-1.49,1.15-.54,0-.99-.4-1.34-1.19-.35-.8-.53-1.81-.53-3.05s.14-2.56.42-4.02c.28-1.46.66-2.82,1.13-4.05.76-2,1.51-3.01,2.26-3.01.2,0,.43.06.69.18.54.22.99.36,1.33.44s.75.12,1.2.12Z"/>
    <path d="M344.21,200.61v7.19c0,4.34-.17,7.42-.5,9.23-.71,3.81-2.28,6.57-4.7,8.29-1.47,1.06-3.12,1.59-4.97,1.59-3.22,0-5.8-1.5-7.74-4.51-.94-1.47-1.6-3.18-1.96-5.13-.36-1.95-.54-4.76-.54-8.43,0-1.43.02-3.79.08-7.08.03-2.32.04-3.85.04-4.6,0-1.63-.06-2.76-.19-3.39-.12-.63-.4-1.22-.82-1.77-.66-.84-.99-1.79-.99-2.83,0-.77.17-1.44.5-2.03.34-.59.78-.99,1.33-1.21,1.1-.43,2.41-.65,3.91-.65,1.66,0,3.03.25,4.12.74,1.07.47,1.61,1.54,1.61,3.21,0,.83-.16,1.48-.47,1.98-.07.12-.37.42-.9.91-.32.28-.54.78-.65,1.5-.12.73-.17,1.93-.17,3.6s-.04,5.41-.12,11.09c-.05,3.38.42,5.96,1.4,7.72.8,1.46,1.84,2.18,3.1,2.18.8,0,1.53-.29,2.18-.87.65-.58,1.15-1.37,1.49-2.37.27-.77.46-1.62.56-2.56s.15-2.23.15-3.86v-6.49c-.05-4.97-.12-7.89-.22-8.74s-.42-1.53-.97-2.02c-.52-.45-.88-.86-1.07-1.24s-.29-.84-.29-1.39c0-1.18.36-2.04,1.08-2.58.72-.54,1.87-.81,3.45-.81s2.68.27,3.38.8c.7.53,1.05,1.38,1.05,2.54,0,.57-.06.99-.18,1.27-.12.28-.44.7-.95,1.27-.53.59-.84,1.22-.91,1.9-.08.68-.12,3.2-.14,7.56Z"/>
    <path d="M357.26,209.19c-.38,0-.62.23-.73.68s-.16,1.5-.16,3.15c0,2.5.08,4.44.24,5.84.05.39.12.7.23.91.1.22.29.48.57.8.6.65.9,1.5.9,2.56,0,1.3-.42,2.22-1.26,2.76s-2.25.81-4.25.81c-3.71,0-5.57-1.38-5.57-4.13,0-.47.05-.85.17-1.14.11-.28.36-.68.75-1.19.44-.57.74-1.24.9-2.02s.26-2.12.32-4.02c.05-1.4.08-6.4.08-15.01,0-2.73-.07-4.59-.21-5.57-.14-.98-.44-1.7-.9-2.15-.44-.41-.74-.79-.89-1.14-.15-.34-.23-.79-.23-1.34,0-.73.14-1.36.43-1.9.29-.54.69-.94,1.2-1.19.43-.22,1.02-.32,1.78-.32.33,0,1.16.1,2.48.29.25.04.65.06,1.19.06.9,0,2.11-.12,3.61-.35.95-.14,1.62-.21,2-.21,2.15,0,3.92,1.01,5.33,3.04,1.26,1.83,1.9,4.36,1.9,7.61,0,1.81-.22,3.45-.66,4.94-.44,1.48-1.05,2.6-1.82,3.35-.32.31-.48.69-.48,1.12,0,.57.25,1.03.74,1.39,1.05.75,1.83,1.88,2.32,3.39.49,1.51.84,3.83,1.05,6.96.09,1.3.22,2.14.39,2.52.17.38.57.75,1.19,1.11.19.12.35.37.48.75.13.38.2.81.2,1.28,0,.61-.12,1.22-.36,1.84s-.55,1.11-.93,1.46c-.84.77-2,1.15-3.46,1.15-1.96,0-3.36-1.01-4.2-3.04-.38-.9-.71-2.04-.97-3.42-.27-1.38-.58-3.52-.94-6.43-.23-1.87-.52-3.18-.88-3.95s-.87-1.18-1.53-1.24ZM356.39,194.15l-.17,6.87v.27c0,.71.05,1.18.16,1.42s.32.35.64.35c.88,0,1.53-.45,1.93-1.34.4-.89.6-2.32.6-4.29,0-3.79-.69-5.69-2.06-5.69-.39,0-.67.18-.83.53-.16.35-.25.98-.27,1.89Z"/>
    <path d="M388.76,193.92l-1.61,3.04c-.59,1.1-.89,2.1-.89,3.01,0,.49.07.98.2,1.47.14.49.39,1.16.76,2.01l5.63,12.77c.5,1.14.85,1.86,1.04,2.17.19.31.48.62.86.96.54.45.93.95,1.15,1.5.23.55.34,1.27.34,2.15,0,2.08-.76,3.13-2.27,3.13h-5.71c-.39,0-.7-.17-.93-.5-.23-.33-.58-1.16-1.08-2.48-.78-2.1-1.82-4.52-3.1-7.25-.56-1.18-.96-1.95-1.18-2.31-.23-.36-.43-.55-.62-.55-.58,0-.87,1.07-.87,3.21,0,1.75.19,2.96.57,3.63.07.1.23.31.48.65.54.69.81,1.54.81,2.57,0,1.3-.44,2.23-1.32,2.79-.88.56-2.37.84-4.46.84-1.86,0-3.21-.22-4.06-.65-.36-.2-.65-.56-.88-1.08-.23-.52-.34-1.11-.34-1.75,0-1.04.3-1.94.9-2.68.27-.35.46-.74.58-1.17.12-.42.22-1.13.32-2.14.2-2.22.3-5.64.3-10.26,0-5.5-.1-9.41-.32-11.71-.08-.94-.19-1.62-.33-2.03-.14-.41-.39-.82-.74-1.21-.56-.63-.84-1.5-.84-2.62,0-.94.18-1.7.53-2.27.35-.57.91-1,1.69-1.3,1.02-.39,2.31-.59,3.85-.59s2.75.29,3.51.88c.68.55,1.02,1.53,1.02,2.95,0,.59-.05,1.05-.16,1.37s-.38.83-.82,1.52c-.16.28-.31.93-.44,1.98-.14,1.04-.2,2.06-.2,3.07,0,1.65.19,2.48.57,2.48.23,0,.45-.2.67-.59s.65-1.38,1.3-2.95c.75-1.83,1.13-3.08,1.13-3.74,0-.35-.1-.88-.29-1.59-.13-.49-.2-.94-.2-1.36,0-1.45.4-2.48,1.2-3.08.8-.6,2.17-.9,4.11-.9,1.55,0,2.69.2,3.43.59.91.49,1.37,1.53,1.37,3.13,0,.63-.09,1.21-.29,1.75-.19.54-.43.89-.71,1.05-.21.14-.7.22-1.46.24-.53.02-.93.14-1.2.37-.27.23-.61.73-1.03,1.52Z"/>
    <path d="M313.93,268.8l-.44-2.06c-.27-1.2-.61-1.99-1.01-2.39-.72-.75-1.08-1.69-1.08-2.83,0-2.52,1.93-3.77,5.78-3.77,1.93,0,3.39.3,4.4.91.34.22.62.56.82,1.03.21.47.31.99.31,1.56,0,.49-.05.87-.14,1.12-.1.26-.36.76-.79,1.5-.25.41-.38.84-.38,1.3,0,.69.19,1.83.57,3.42l.86,3.6c.39,1.63.67,2.67.83,3.11.17.44.35.66.56.66.23,0,.43-.25.59-.77.17-.51.38-1.51.64-3.01l.72-4.13c.2-1.18.3-2.06.3-2.65,0-.79-.21-1.31-.63-1.56-.84-.53-1.26-1.47-1.26-2.83,0-1.18.33-2.02.98-2.54.65-.51,1.73-.77,3.22-.77.97,0,1.73.22,2.27.65.75.59,1.13,1.53,1.13,2.83,0,.57-.07,1.06-.2,1.47-.13.41-.41.96-.82,1.65-.27.45-.48.93-.62,1.45-.15.51-.37,1.56-.67,3.15l-2.63,13.71c-1.31,6.39-2.11,10.19-2.38,11.41-.27,1.22-.55,2.31-.84,3.27-.22.71-.47,1.2-.74,1.49-.27.29-.63.43-1.08.43-.6,0-1.09-.26-1.45-.77s-.67-1.36-.93-2.54l-2.98-13.86c-.16-.77-.28-1.25-.36-1.45-.08-.2-.19-.29-.33-.29-.21,0-.39.25-.54.74-.15.49-.44,1.76-.86,3.8l-2.05,9.97c-.38,1.81-.75,3-1.09,3.58-.35.58-.87.87-1.57.87-.63,0-1.13-.29-1.5-.88s-.7-1.63-1-3.12l-5.54-27.75c-.23-1.14-.39-1.81-.47-2.02-.09-.21-.35-.54-.81-1.02-.51-.51-.77-1.38-.77-2.59,0-2.77,1.76-4.16,5.27-4.16,1.8,0,3.1.25,3.9.74.77.49,1.16,1.46,1.16,2.92,0,.45-.02.78-.06.99-.04.21-.19.66-.44,1.37-.12.37-.18.84-.18,1.39,0,.98.34,3.03,1.01,6.13l.62,2.83c.26,1.18.43,1.89.52,2.14.08.25.21.37.37.37.39,0,.79-1.09,1.2-3.27l.62-3.36c.05-.24.08-.42.08-.56,0-.16-.03-.36-.08-.62Z"/>
    <path d="M342.44,281.65c-.38,0-.62.23-.73.68-.11.45-.16,1.5-.16,3.16,0,2.5.08,4.44.24,5.84.05.39.12.7.23.91.1.22.29.48.57.8.6.65.9,1.5.9,2.57,0,1.3-.42,2.22-1.26,2.76-.84.54-2.25.81-4.25.81-3.71,0-5.57-1.38-5.57-4.13,0-.47.05-.85.17-1.13s.36-.68.75-1.19c.44-.57.74-1.24.9-2.02s.26-2.12.32-4.02c.05-1.4.08-6.4.08-15.01,0-2.73-.07-4.59-.21-5.57-.14-.98-.44-1.7-.9-2.15-.44-.41-.74-.79-.89-1.13-.15-.34-.23-.79-.23-1.34,0-.73.14-1.36.43-1.9.29-.54.69-.94,1.2-1.19.43-.22,1.02-.32,1.78-.32.33,0,1.16.1,2.48.29.25.04.65.06,1.19.06.9,0,2.11-.12,3.61-.35.95-.14,1.62-.21,2-.21,2.15,0,3.92,1.01,5.33,3.04,1.26,1.83,1.9,4.36,1.9,7.61,0,1.81-.22,3.46-.66,4.94s-1.05,2.6-1.82,3.35c-.32.32-.48.69-.48,1.12,0,.57.25,1.03.74,1.39,1.05.75,1.83,1.88,2.32,3.39.49,1.51.84,3.83,1.05,6.96.09,1.3.22,2.14.39,2.52.17.38.57.75,1.19,1.11.19.12.35.37.48.75.13.38.2.81.2,1.28,0,.61-.12,1.22-.36,1.84s-.55,1.11-.93,1.46c-.84.77-2,1.15-3.46,1.15-1.96,0-3.36-1.01-4.2-3.04-.38-.9-.71-2.04-.97-3.42s-.58-3.52-.94-6.43c-.23-1.87-.52-3.18-.88-3.95s-.87-1.18-1.53-1.24ZM341.56,266.61l-.17,6.87v.27c0,.71.05,1.18.16,1.42.11.24.32.35.64.35.88,0,1.53-.45,1.93-1.34s.6-2.32.6-4.29c0-3.79-.69-5.69-2.06-5.69-.39,0-.67.18-.83.53-.16.35-.25.98-.27,1.89Z"/>
    <path d="M362.97,257.71c1.14,0,2.22.2,3.24.59,1.36.53,2.05,1.66,2.05,3.39,0,.57-.07,1-.2,1.28s-.48.7-1.03,1.25c-.46.45-.76,1.44-.91,2.98s-.22,4.52-.22,8.96c0,7.51.1,12.16.29,13.95.07.57.18,1.01.32,1.31.14.3.4.63.76.99.66.59.99,1.44.99,2.57,0,1.57-.61,2.65-1.84,3.24-1.33.63-2.95.94-4.86.94-3.27,0-4.91-1.22-4.91-3.66,0-.88.32-1.71.96-2.48.49-.59.78-1.4.87-2.42.19-2.24.29-7,.29-14.27,0-5.03-.13-8.26-.39-9.67-.14-.81-.48-1.53-1.01-2.18-.41-.53-.69-.97-.83-1.33s-.21-.81-.21-1.36c0-.84.21-1.52.62-2.02.42-.5,1.15-.95,2.21-1.34,1.25-.49,2.52-.74,3.81-.74Z"/>
    <path d="M375.71,258.33h7.93c.85-.06,1.63-.29,2.33-.68.3-.16.57-.24.8-.24.81,0,1.6,1.18,2.37,3.54.77,2.36,1.15,4.79,1.15,7.28,0,1.71-.27,2.96-.8,3.74-.4.59-.88.88-1.45.88-.53,0-.99-.29-1.38-.87-.39-.58-.78-1.54-1.16-2.87-.33-1.22-.59-2.01-.78-2.39-.19-.37-.42-.56-.69-.56-.37,0-.64.3-.8.91-.16.61-.24,1.61-.24,3.01v16.51c0,1.69.09,2.92.27,3.69s.52,1.36,1.02,1.77c.54.45.91.88,1.11,1.28.2.4.29.96.29,1.67,0,1.42-.49,2.47-1.47,3.15-.98.69-2.48,1.03-4.51,1.03-2.49,0-4.34-.4-5.54-1.21-1.01-.67-1.52-1.75-1.52-3.24,0-.81.18-1.43.54-1.89.09-.1.45-.33,1.07-.71.38-.22.64-.63.79-1.24.15-.61.26-1.78.35-3.51.08-1.53.16-4.01.23-7.44.07-3.43.11-6.4.11-8.92,0-1.77-.07-3.03-.21-3.77s-.37-1.12-.69-1.12c-.39,0-.77.55-1.14,1.65-.67,2-1.22,3.33-1.66,3.98-.51.77-1.01,1.15-1.49,1.15-.54,0-.99-.4-1.34-1.19-.35-.8-.53-1.81-.53-3.05s.14-2.56.42-4.02c.28-1.46.66-2.82,1.13-4.05.76-2,1.51-3.01,2.26-3.01.2,0,.43.06.69.18.54.22.99.36,1.33.44.35.08.75.12,1.2.12Z"/>
    <path d="M397.32,257.71c1.14,0,2.22.2,3.24.59,1.36.53,2.05,1.66,2.05,3.39,0,.57-.07,1-.2,1.28s-.48.7-1.03,1.25c-.46.45-.76,1.44-.91,2.98s-.22,4.52-.22,8.96c0,7.51.1,12.16.29,13.95.07.57.18,1.01.32,1.31.14.3.4.63.76.99.66.59.99,1.44.99,2.57,0,1.57-.61,2.65-1.84,3.24-1.33.63-2.95.94-4.86.94-3.27,0-4.91-1.22-4.91-3.66,0-.88.32-1.71.96-2.48.49-.59.78-1.4.87-2.42.19-2.24.29-7,.29-14.27,0-5.03-.13-8.26-.39-9.67-.14-.81-.48-1.53-1.01-2.18-.41-.53-.69-.97-.83-1.33s-.21-.81-.21-1.36c0-.84.21-1.52.62-2.02.42-.5,1.15-.95,2.21-1.34,1.25-.49,2.52-.74,3.81-.74Z"/>
    <path d="M411.91,259.75l7.5,12.85c.7,1.2,1.21,1.8,1.52,1.8.52,0,.78-1.09.78-3.27,0-2.48-.08-4.17-.23-5.07s-.47-1.58-.95-2.03c-.39-.37-.67-.77-.83-1.19-.16-.42-.24-.97-.24-1.64,0-1.65.58-2.71,1.73-3.18.47-.2,1.29-.29,2.47-.29,1.51,0,2.56.18,3.15.53.92.55,1.38,1.59,1.38,3.12,0,1.28-.38,2.24-1.13,2.89-.3.26-.51.48-.62.68-.11.2-.21.49-.29.88-.27,1.3-.41,3.75-.42,7.37v9.61c0,1.47,0,3.49.02,6.04,0,3.46-.1,5.96-.32,7.49-.27,1.91-.76,2.86-1.48,2.86-.31,0-.58-.13-.8-.38-.23-.26-.6-.85-1.12-1.77l-8.93-15.66c-.62-1.1-1.14-1.65-1.55-1.65-.61,0-.92,1.66-.92,4.98,0,2.73.08,4.6.23,5.6.16,1,.47,1.74.96,2.21.67.65,1.01,1.49,1.01,2.54,0,2.73-1.5,4.1-4.5,4.1-1.35,0-2.41-.35-3.15-1.05-.75-.7-1.12-1.69-1.12-2.96,0-.67.07-1.17.21-1.5.14-.33.46-.79.95-1.36.47-.55.76-1.52.86-2.92.17-2.54.26-6.18.26-10.94,0-5.07-.15-8.77-.45-11.09-.11-.84-.25-1.47-.42-1.89s-.45-.81-.84-1.18c-.45-.43-.77-.85-.94-1.27-.18-.41-.26-.91-.26-1.5,0-1.89.83-3.08,2.48-3.57.56-.16,1.54-.24,2.95-.24.8,0,1.39.12,1.75.37.37.25.8.8,1.3,1.67Z"/>
    <path d="M440.43,257.5c1.31,0,2.55.36,3.72,1.09.52.33.88.5,1.07.5.2,0,.62-.23,1.26-.68.21-.14.43-.21.65-.21.56,0,1.1.65,1.61,1.95.82,2.08,1.23,4.36,1.23,6.84,0,1.69-.22,3.06-.66,4.1s-1.01,1.56-1.72,1.56c-.58,0-1.15-.41-1.72-1.24-.17-.26-.59-1.18-1.25-2.77-1.1-2.65-2.37-3.98-3.81-3.98-1.3,0-2.34.93-3.11,2.8s-1.15,4.38-1.15,7.55c0,4.7.61,8.7,1.84,12,.46,1.2,1.01,2.16,1.66,2.88.64.72,1.28,1.08,1.91,1.08.52,0,.95-.34,1.29-1.02s.5-1.55.5-2.61c0-.94-.14-1.61-.42-2-.11-.16-.21-.25-.31-.28s-.38-.04-.87-.04c-.43,0-.79-.27-1.08-.81-.29-.54-.43-1.22-.43-2.05,0-1.63.55-2.79,1.66-3.48,1.21-.75,2.61-1.12,4.2-1.12,1.7,0,3.12.34,4.28,1.03,1.09.67,1.64,1.88,1.64,3.63,0,.71-.12,1.32-.38,1.84s-.58.83-.98.93c-.35.1-.58.25-.68.46-.11.21-.21.71-.32,1.52-.43,3.12-1.27,5.74-2.53,7.84-.86,1.44-1.9,2.56-3.12,3.36-1.22.81-2.5,1.21-3.85,1.21-2.2,0-4.21-.99-6.05-2.98-1.89-2.02-3.32-4.85-4.3-8.49-.82-3.03-1.23-6.3-1.23-9.82s.49-6.94,1.47-10.14c1.04-3.44,2.5-6.09,4.38-7.96,1.64-1.65,3.5-2.48,5.6-2.48Z"/>
    <path d="M462.43,257.5c1.03,0,2.39.5,4.06,1.5.2.12.36.18.48.18.1,0,.4-.18.9-.53.16-.12.33-.18.51-.18.67,0,1.38,1.04,2.13,3.12.75,2.08,1.12,4.07,1.12,5.96,0,1.1-.17,2.03-.5,2.79s-.75,1.13-1.23,1.13c-.4,0-.73-.16-.98-.47-.25-.31-.8-1.25-1.66-2.8-1.2-2.2-2.39-3.3-3.55-3.3-.56,0-1.01.27-1.35.8-.34.53-.5,1.23-.5,2.09,0,1.71.77,3,2.3,3.86,2.08,1.2,3.41,2.07,3.99,2.62,2.56,2.44,3.84,6.03,3.84,10.76,0,4.19-.87,7.61-2.62,10.26-1.79,2.71-4.12,4.07-7,4.07-1.29,0-2.64-.3-4.06-.9-1.43-.6-2.45-1.3-3.09-2.11-.48-.63-.92-2-1.3-4.11-.39-2.11-.58-4.17-.58-6.18,0-.96.1-1.69.3-2.18.25-.63.57-.94.95-.94s.75.38,1.1,1.15c.21.43.71,1.82,1.49,4.16.37,1.1.96,2.01,1.77,2.74.81.73,1.64,1.09,2.51,1.09.74,0,1.34-.27,1.81-.81.46-.54.69-1.23.69-2.08,0-.79-.18-1.46-.54-2.03s-.95-1.1-1.76-1.59c-1.44-.88-2.53-1.7-3.28-2.43-.75-.74-1.46-1.67-2.11-2.79-1.58-2.75-2.38-5.88-2.38-9.38,0-1.73.21-3.42.62-5.06.41-1.64.99-3.06,1.75-4.26,1.69-2.77,3.74-4.16,6.17-4.16Z"/>
  </g>
</svg>